<svg xmlns="http://www.w3.org/2000/svg" viewBox="0 0 64 64" width="64" height="64">
  <!-- Tower base/legs -->
  <polygon points="20,62 24,34 40,34 44,62" fill="#5C4033" stroke="#3B2718" stroke-width="1"/>
  <!-- Cross brace -->
  <line x1="22" y1="48" x2="42" y2="48" stroke="#3B2718" stroke-width="1.5"/>
  <line x1="23" y1="41" x2="41" y2="41" stroke="#3B2718" stroke-width="1.5"/>
  <!-- Platform -->
  <rect x="18" y="30" width="28" height="4" rx="1" fill="#6B4F3A" stroke="#3B2718" stroke-width="1"/>
  <!-- Railing posts -->
  <line x1="19" y1="30" x2="19" y2="24" stroke="#5C4033" stroke-width="1.5"/>
  <line x1="45" y1="30" x2="45" y2="24" stroke="#5C4033" stroke-width="1.5"/>
  <!-- Railing top -->
  <line x1="19" y1="24" x2="45" y2="24" stroke="#5C4033" stroke-width="1.5"/>
  <!-- Fire flame (main) -->
  <path d="M32,4 C32,4 22,16 22,22 C22,27.5 26.5,30 32,30 C37.5,30 42,27.5 42,22 C42,16 32,4 32,4Z" fill="#FF6600"/>
  <!-- Fire flame (inner) -->
  <path d="M32,10 C32,10 26,18 26,22 C26,25.3 28.7,28 32,28 C35.3,28 38,25.3 38,22 C38,18 32,10 32,10Z" fill="#FFAA00"/>
  <!-- Fire flame (core) -->
  <path d="M32,16 C32,16 29,20 29,22.5 C29,24.4 30.3,26 32,26 C33.7,26 35,24.4 35,22.5 C35,20 32,16 32,16Z" fill="#FFD700"/>
</svg>
